<mxfile host="app.diagrams.net" modified="2021-04-28T11:31:02.472Z" agent="5.0 (Macintosh; Intel Mac OS X 10_15_7) AppleWebKit/537.36 (KHTML, like Gecko) Chrome/90.0.4430.85 Safari/537.36" etag="VaNgLAqdlgU2FOhYHM2z" version="14.6.6" type="github">
  <diagram id="FXP93Pa_XHhSvIE7hYAm" name="Page-1">
    <mxGraphModel dx="975" dy="616" grid="1" gridSize="10" guides="1" tooltips="1" connect="1" arrows="1" fold="1" page="1" pageScale="1" pageWidth="827" pageHeight="1169" math="0" shadow="0">
      <root>
        <mxCell id="0" />
        <mxCell id="1" parent="0" />
        <mxCell id="q_sAtDzjFl6szFvGDNPt-7" value="" style="rounded=1;whiteSpace=wrap;html=1;fontSize=32;strokeColor=none;" vertex="1" parent="1">
          <mxGeometry x="60" y="50" width="660" height="260" as="geometry" />
        </mxCell>
        <mxCell id="q_sAtDzjFl6szFvGDNPt-8" value="色块样式&amp;amp;色彩区分" style="text;html=1;strokeColor=none;fillColor=none;align=left;verticalAlign=middle;whiteSpace=wrap;rounded=0;fontSize=18;" vertex="1" parent="1">
          <mxGeometry x="80" y="80" width="280" height="40" as="geometry" />
        </mxCell>
        <mxCell id="q_sAtDzjFl6szFvGDNPt-9" value="文字字体&amp;amp;字号区分" style="text;html=1;strokeColor=none;fillColor=none;align=left;verticalAlign=middle;whiteSpace=wrap;rounded=0;fontSize=18;" vertex="1" parent="1">
          <mxGeometry x="380" y="80" width="280" height="40" as="geometry" />
        </mxCell>
        <mxCell id="q_sAtDzjFl6szFvGDNPt-10" value="" style="rounded=1;whiteSpace=wrap;html=1;fontSize=32;strokeColor=#CCCCCC;fillColor=#d94200;" vertex="1" parent="1">
          <mxGeometry x="90" y="130" width="60" height="30" as="geometry" />
        </mxCell>
        <mxCell id="q_sAtDzjFl6szFvGDNPt-11" value="" style="rounded=1;whiteSpace=wrap;html=1;fontSize=32;strokeColor=#CCCCCC;fillColor=#4d32a5;" vertex="1" parent="1">
          <mxGeometry x="170" y="130" width="60" height="30" as="geometry" />
        </mxCell>
        <mxCell id="q_sAtDzjFl6szFvGDNPt-12" value="" style="rounded=1;whiteSpace=wrap;html=1;fontSize=32;strokeColor=#CCCCCC;fillColor=#0f6d7b;" vertex="1" parent="1">
          <mxGeometry x="250" y="130" width="60" height="30" as="geometry" />
        </mxCell>
        <mxCell id="q_sAtDzjFl6szFvGDNPt-13" value="" style="rounded=1;whiteSpace=wrap;html=1;fontSize=32;strokeColor=#CCCCCC;fillColor=#ffece6;" vertex="1" parent="1">
          <mxGeometry x="90" y="170" width="60" height="30" as="geometry" />
        </mxCell>
        <mxCell id="q_sAtDzjFl6szFvGDNPt-14" value="" style="rounded=1;whiteSpace=wrap;html=1;fontSize=32;strokeColor=#CCCCCC;fillColor=#eeebf6;" vertex="1" parent="1">
          <mxGeometry x="170" y="170" width="60" height="30" as="geometry" />
        </mxCell>
        <mxCell id="q_sAtDzjFl6szFvGDNPt-15" value="" style="rounded=1;whiteSpace=wrap;html=1;fontSize=32;strokeColor=#CCCCCC;fillColor=#e9f8fb;" vertex="1" parent="1">
          <mxGeometry x="250" y="170" width="60" height="30" as="geometry" />
        </mxCell>
        <mxCell id="q_sAtDzjFl6szFvGDNPt-16" value="" style="rounded=1;whiteSpace=wrap;html=1;fontSize=32;fontColor=#000000;fillColor=#FFFFFF;strokeColor=#D94200;" vertex="1" parent="1">
          <mxGeometry x="90" y="210" width="60" height="30" as="geometry" />
        </mxCell>
        <mxCell id="q_sAtDzjFl6szFvGDNPt-17" value="" style="rounded=1;whiteSpace=wrap;html=1;fontSize=32;fillColor=#ffffff;strokeColor=#4D32A5;" vertex="1" parent="1">
          <mxGeometry x="170" y="210" width="60" height="30" as="geometry" />
        </mxCell>
        <mxCell id="q_sAtDzjFl6szFvGDNPt-18" value="" style="rounded=1;whiteSpace=wrap;html=1;fontSize=32;fillColor=#ffffff;strokeColor=#0F6D7B;" vertex="1" parent="1">
          <mxGeometry x="250" y="210" width="60" height="30" as="geometry" />
        </mxCell>
        <mxCell id="q_sAtDzjFl6szFvGDNPt-19" value="" style="rounded=1;whiteSpace=wrap;html=1;fontSize=32;strokeColor=#CCCCCC;fillColor=#808080;" vertex="1" parent="1">
          <mxGeometry x="90" y="250" width="60" height="30" as="geometry" />
        </mxCell>
        <mxCell id="q_sAtDzjFl6szFvGDNPt-20" value="" style="rounded=1;whiteSpace=wrap;html=1;fontSize=32;strokeColor=#a8a8a8;fillColor=#A8A8A8;" vertex="1" parent="1">
          <mxGeometry x="170" y="250" width="60" height="30" as="geometry" />
        </mxCell>
        <mxCell id="q_sAtDzjFl6szFvGDNPt-21" value="" style="rounded=1;whiteSpace=wrap;html=1;fontSize=32;strokeColor=#DADADA;fillColor=#DADADA;" vertex="1" parent="1">
          <mxGeometry x="250" y="250" width="60" height="30" as="geometry" />
        </mxCell>
        <mxCell id="q_sAtDzjFl6szFvGDNPt-24" value="&lt;font style=&quot;font-size: 32px&quot;&gt;32px 一级字体&lt;/font&gt;" style="text;html=1;strokeColor=none;fillColor=none;align=left;verticalAlign=middle;whiteSpace=wrap;rounded=0;fontSize=18;" vertex="1" parent="1">
          <mxGeometry x="390" y="125" width="280" height="40" as="geometry" />
        </mxCell>
        <mxCell id="q_sAtDzjFl6szFvGDNPt-25" value="&lt;font style=&quot;font-size: 24px&quot;&gt;24px 二级字体&lt;/font&gt;" style="text;html=1;strokeColor=none;fillColor=none;align=left;verticalAlign=middle;whiteSpace=wrap;rounded=0;fontSize=18;" vertex="1" parent="1">
          <mxGeometry x="390" y="170" width="280" height="40" as="geometry" />
        </mxCell>
        <mxCell id="q_sAtDzjFl6szFvGDNPt-26" value="&lt;font style=&quot;font-size: 18px&quot;&gt;18px 三级字体&lt;/font&gt;" style="text;html=1;strokeColor=none;fillColor=none;align=left;verticalAlign=middle;whiteSpace=wrap;rounded=0;fontSize=18;" vertex="1" parent="1">
          <mxGeometry x="390" y="210" width="280" height="40" as="geometry" />
        </mxCell>
      </root>
    </mxGraphModel>
  </diagram>
</mxfile>
